<?xml version="1.0" encoding="utf-8"?>
<!-- Generator: Adobe Illustrator 15.1.0, SVG Export Plug-In . SVG Version: 6.00 Build 0)  -->
<!DOCTYPE svg PUBLIC "-//W3C//DTD SVG 1.1//EN" "http://www.w3.org/Graphics/SVG/1.1/DTD/svg11.dtd">
<svg version="1.1" id="Capa_1" xmlns="http://www.w3.org/2000/svg" xmlns:xlink="http://www.w3.org/1999/xlink" x="0px" y="0px"
	 width="14px" height="26px" viewBox="249 243 14 26" enable-background="new 249 243 14 26" xml:space="preserve">
<g>
	<g id="interface_-_arrow_right">
		<g>
			<path fill="#666666" d="M262.728,255.225c-0.094-0.102-0.201-0.177-0.317-0.227l-11.781-11.696c-0.373-0.402-0.977-0.402-1.35,0
				c-0.373,0.404-0.373,1.058,0,1.46l11.318,11.238l-11.318,11.235c-0.373,0.404-0.373,1.058,0,1.462
				c0.373,0.404,0.977,0.404,1.35,0l11.785-11.7c0.114-0.05,0.22-0.123,0.312-0.226c0.197-0.212,0.283-0.493,0.273-0.77
				C263.011,255.722,262.925,255.439,262.728,255.225z"/>
		</g>
	</g>
</g>
</svg>
