<?xml version="1.0" encoding="utf-8"?>
<!-- Generator: Adobe Illustrator 15.1.0, SVG Export Plug-In . SVG Version: 6.00 Build 0)  -->
<!DOCTYPE svg PUBLIC "-//W3C//DTD SVG 1.1//EN" "http://www.w3.org/Graphics/SVG/1.1/DTD/svg11.dtd">
<svg version="1.1" id="Capa_1" xmlns="http://www.w3.org/2000/svg" xmlns:xlink="http://www.w3.org/1999/xlink" x="0px" y="0px"
	 width="13.999px" height="26px" viewBox="249.001 243 13.999 26" enable-background="new 249.001 243 13.999 26"
	 xml:space="preserve">
<g>
	<g id="interface_-_arrow_left">
		<g>
			<path fill="#666666" d="M251.403,255.998l11.318-11.237c0.373-0.402,0.373-1.057,0-1.459c-0.372-0.402-0.977-0.402-1.35,0
				l-11.781,11.695c-0.115,0.05-0.223,0.125-0.317,0.227c-0.197,0.214-0.283,0.498-0.271,0.779c-0.01,0.276,0.078,0.558,0.273,0.77
				c0.092,0.099,0.197,0.173,0.311,0.225l11.785,11.699c0.373,0.404,0.978,0.404,1.35,0c0.373-0.404,0.373-1.057,0-1.461
				L251.403,255.998z"/>
		</g>
	</g>
</g>
</svg>
