<?xml version="1.0" encoding="utf-8"?>
<!-- Generator: Adobe Illustrator 15.1.0, SVG Export Plug-In . SVG Version: 6.00 Build 0)  -->
<!DOCTYPE svg PUBLIC "-//W3C//DTD SVG 1.1//EN" "http://www.w3.org/Graphics/SVG/1.1/DTD/svg11.dtd">
<svg version="1.1" id="Layer_1" xmlns="http://www.w3.org/2000/svg" xmlns:xlink="http://www.w3.org/1999/xlink" x="0px" y="0px"
	 width="473.604px" height="438.202px" viewBox="71.37 345.168 473.604 438.202"
	 enable-background="new 71.37 345.168 473.604 438.202" xml:space="preserve">
<path d="M361.887,608.096c-5.406,0.598-11.116-1.575-14.378-6.354c-5.371-7.346-3.737-17.338,2.958-22.749
	c20.195-15.307,30.608-40.746,27.807-66.129c-2.139-19.383-11.331-36.587-26.374-48.939c-7.018-5.766-8.14-15.919-2.546-23.075
	c5.592-7.156,15.501-8.251,22.521-2.486c21.558,17.707,34.82,42.869,37.877,70.559c4.074,36.921-11.474,73.67-40.514,95.562
	C367.241,607.039,364.59,607.798,361.887,608.096z"/>
<path d="M418.744,643.379c-5.371,0.592-11.019-1.315-14.5-5.994c-6.255-7.412-6.006-18.579,1.2-24.947
	c28.709-26.461,43.178-65.53,38.814-105.052c-3.698-33.521-19.818-63.137-45.851-84.063c-7.555-5.75-8.823-17.256-3.25-24.961
	c5.575-7.706,16.806-8.945,24.358-3.195c33.589,26.677,54.118,64.92,58.868,107.944c5.577,50.529-13.049,101.2-49.829,135.136
	C425.47,641.627,422.162,643.002,418.744,643.379z"/>
<path d="M466.739,686.833c-5.676,0.626-11.125-1.447-15.26-5.807c-6.606-7.828-6.284-19.096,0.753-26.292
	c40.623-38.716,61.552-95.053,55.312-151.6c-5.483-49.676-30.216-94.017-69.022-123.967c-7.979-6.074-9.779-17.642-3.891-25.781
	c5.889-8.139,17.179-9.919,25.158-3.847c46.785,36.022,77.327,90.422,83.858,149.609c7.526,68.174-17.278,136.704-66.429,183.316
	C473.782,684.451,470.346,686.434,466.739,686.833z"/>
<path d="M247.535,604.157c-29.155-22.047-44.896-58.881-41.015-95.779c2.912-27.675,16.043-52.766,37.508-70.357
	c6.99-5.728,16.905-4.579,22.535,2.606c5.63,7.188,4.562,17.335-2.426,23.063c-14.978,12.272-24.081,29.428-26.118,48.799
	c-2.669,25.368,7.877,50.864,28.153,66.279c6.724,5.447,8.41,15.447,3.078,22.766c-3.238,4.762-8.936,6.903-14.345,6.277
	C252.202,607.498,249.547,606.723,247.535,604.157z"/>
<path d="M188.394,637.603c-36.958-34.134-55.85-84.905-50.537-135.404c4.525-43,24.854-81.134,58.304-107.631
	c7.523-5.709,18.761-4.41,24.376,3.326c5.614,7.735,4.405,19.234-3.12,24.944c-25.923,20.787-41.888,50.317-45.411,83.818
	c-4.156,39.499,10.517,78.646,39.365,105.263c7.24,6.406,7.547,17.575,1.332,24.953c-3.458,4.66-9.095,6.537-14.469,5.917
	C194.813,642.393,191.498,641,188.394,637.603z"/>
<path d="M139.963,681.562c-49.395-46.876-74.558-115.541-67.389-183.675c6.221-59.153,36.479-113.39,83.076-149.162
	c7.948-6.03,19.248-4.189,25.179,3.982c5.931,8.17,4.191,19.729-3.756,25.761c-38.65,29.743-63.15,73.952-68.374,123.598
	c-5.945,56.514,15.279,112.964,56.106,151.898c7.075,7.233,7.456,18.504,0.89,26.297c-4.112,4.337-9.55,6.381-15.229,5.725
	C146.856,685.567,143.409,683.565,139.963,681.562z"/>
<circle cx="307.975" cy="518.739" r="35.834"/>
<path d="M236.808,742.778l53.333-128.667c0,0,15.333-33.333,32,0s55.593,128.667,55.593,128.667s11.074,38.667-26.926,40
	s-89.333,0-89.333,0S223.474,786.778,236.808,742.778z"/>
</svg>
