<?xml version="1.0" encoding="utf-8"?>
<!-- Generator: Adobe Illustrator 15.1.0, SVG Export Plug-In . SVG Version: 6.00 Build 0)  -->
<!DOCTYPE svg PUBLIC "-//W3C//DTD SVG 1.1//EN" "http://www.w3.org/Graphics/SVG/1.1/DTD/svg11.dtd">
<svg version="1.1" id="Layer_1" xmlns="http://www.w3.org/2000/svg" xmlns:xlink="http://www.w3.org/1999/xlink" x="0px" y="0px"
	 width="391.562px" height="300.106px" viewBox="102.521 270.651 391.562 300.106"
	 enable-background="new 102.521 270.651 391.562 300.106" xml:space="preserve">
<path d="M484.854,270.651H111.749c-5.273,0-9.229,3.969-9.229,9.26v34.534v21v226.053c0,5.291,3.969,9.26,9.26,9.26h113.104h145.513
	h114.426c5.291,0,9.26-3.969,9.26-9.26V335.445v-21v-34.534C494.082,274.62,490.127,270.651,484.854,270.651z M361.798,552.898
	H234.144V388.205h127.654V552.898z M475.563,314.445V553.56h-95.906V379.606c0-5.291-3.969-9.26-9.26-9.26H224.884
	c-5.292,0-9.261,3.969-9.261,9.26V553.56h-95.906V335.445h0.048V288.51h355.86v25.935H475.563z"/>
</svg>
