<?xml version="1.0" encoding="utf-8"?>
<!-- Generator: Adobe Illustrator 15.1.0, SVG Export Plug-In . SVG Version: 6.00 Build 0)  -->
<!DOCTYPE svg PUBLIC "-//W3C//DTD SVG 1.1//EN" "http://www.w3.org/Graphics/SVG/1.1/DTD/svg11.dtd">
<svg version="1.1" id="Layer_1" xmlns="http://www.w3.org/2000/svg" xmlns:xlink="http://www.w3.org/1999/xlink" x="0px" y="0px"
	 width="14px" height="16.545px" viewBox="885.862 923.978 14 16.545" enable-background="new 885.862 923.978 14 16.545"
	 xml:space="preserve">
<path d="M899.362,929.95c0,0.112-0.043,0.213-0.13,0.299l-6.071,6.07c-0.086,0.087-0.187,0.131-0.299,0.131
	s-0.213-0.044-0.299-0.131l-6.07-6.07c-0.087-0.086-0.13-0.187-0.13-0.299c0-0.113,0.043-0.213,0.13-0.3l0.651-0.651
	c0.087-0.087,0.187-0.131,0.3-0.131c0.113,0,0.212,0.044,0.299,0.131l5.119,5.119l5.119-5.119c0.087-0.087,0.187-0.131,0.3-0.131
	c0.112,0,0.213,0.044,0.299,0.131l0.652,0.651C899.319,929.737,899.362,929.837,899.362,929.95z"/>
</svg>
