<?xml version="1.0" encoding="utf-8"?>
<!-- Generator: Adobe Illustrator 15.1.0, SVG Export Plug-In . SVG Version: 6.00 Build 0)  -->
<!DOCTYPE svg PUBLIC "-//W3C//DTD SVG 1.1//EN" "http://www.w3.org/Graphics/SVG/1.1/DTD/svg11.dtd">
<svg version="1.1" id="Layer_1" xmlns="http://www.w3.org/2000/svg" xmlns:xlink="http://www.w3.org/1999/xlink" x="0px" y="0px"
	 width="49.333px" height="50.334px" viewBox="0 0 49.333 50.334" enable-background="new 0 0 49.333 50.334" xml:space="preserve">
<g>
	<path fill="#666666" d="M5.407,45.431c0.271,0.271,0.609,0.405,0.98,0.405c0.373,0,0.711-0.135,0.982-0.405l17.301-17.3
		l17.297,17.3c0.271,0.271,0.609,0.405,0.982,0.405c0.338,0,0.711-0.135,0.98-0.405c0.541-0.541,0.541-1.421,0-1.964L26.633,26.168
		l17.299-17.3c0.541-0.542,0.541-1.422,0-1.963c-0.541-0.543-1.422-0.543-1.963,0l-17.3,17.3l-17.3-17.3
		c-0.542-0.543-1.422-0.543-1.963,0c-0.542,0.541-0.542,1.422,0,1.963l17.3,17.3l-17.3,17.299C4.865,44.01,4.865,44.89,5.407,45.431
		z"/>
</g>
</svg>
