<?xml version="1.0" encoding="utf-8"?>
<!-- Generator: Adobe Illustrator 15.1.0, SVG Export Plug-In . SVG Version: 6.00 Build 0)  -->
<!DOCTYPE svg PUBLIC "-//W3C//DTD SVG 1.1//EN" "http://www.w3.org/Graphics/SVG/1.1/DTD/svg11.dtd">
<svg version="1.1" id="Layer_1" xmlns="http://www.w3.org/2000/svg" xmlns:xlink="http://www.w3.org/1999/xlink" x="0px" y="0px"
	 width="30px" height="35.454px" viewBox="881 878.272 30 35.454" enable-background="new 881 878.272 30 35.454"
	 xml:space="preserve">
<path d="M908.205,892.239l-11.507,11.492c-0.196,0.196-0.429,0.294-0.698,0.294c-0.269,0-0.501-0.098-0.698-0.294l-11.507-11.492
	c-0.197-0.196-0.295-0.432-0.295-0.706c0-0.273,0.098-0.509,0.295-0.705l2.574-2.56c0.196-0.196,0.429-0.294,0.698-0.294
	c0.269,0,0.501,0.098,0.698,0.294l8.235,8.235l8.235-8.235c0.196-0.196,0.429-0.294,0.697-0.294c0.27,0,0.502,0.098,0.698,0.294
	l2.574,2.56c0.196,0.196,0.295,0.432,0.295,0.705C908.5,891.808,908.401,892.043,908.205,892.239z"/>
</svg>
