<?xml version="1.0" encoding="utf-8"?>
<!-- Generator: Adobe Illustrator 15.1.0, SVG Export Plug-In . SVG Version: 6.00 Build 0)  -->
<!DOCTYPE svg PUBLIC "-//W3C//DTD SVG 1.1//EN" "http://www.w3.org/Graphics/SVG/1.1/DTD/svg11.dtd">
<svg version="1.1" id="Layer_1" xmlns="http://www.w3.org/2000/svg" xmlns:xlink="http://www.w3.org/1999/xlink" x="0px" y="0px"
	 width="18px" height="15.512px" viewBox="887 891.125 18 15.512" enable-background="new 887 891.125 18 15.512"
	 xml:space="preserve">
<path fill="#999999" d="M904.5,896.586v7.533c0,0.417-0.148,0.774-0.446,1.071c-0.297,0.298-0.654,0.446-1.071,0.446h-13.964
	c-0.417,0-0.775-0.148-1.072-0.446c-0.297-0.297-0.446-0.654-0.446-1.071v-7.533c0.278,0.311,0.598,0.585,0.958,0.826
	c2.29,1.556,3.861,2.646,4.715,3.272c0.361,0.266,0.653,0.473,0.877,0.621c0.225,0.148,0.523,0.301,0.896,0.456
	c0.374,0.154,0.721,0.232,1.044,0.232h0.019c0.323,0,0.67-0.078,1.043-0.232c0.373-0.155,0.672-0.308,0.896-0.456
	s0.518-0.355,0.878-0.621c1.075-0.778,2.649-1.869,4.725-3.272C903.912,897.165,904.229,896.89,904.5,896.586z M904.5,893.797
	c0,0.5-0.155,0.978-0.465,1.433c-0.31,0.456-0.695,0.845-1.157,1.167c-2.378,1.65-3.858,2.679-4.439,3.083
	c-0.063,0.045-0.198,0.141-0.403,0.29c-0.206,0.148-0.377,0.269-0.513,0.36s-0.3,0.194-0.493,0.308
	c-0.193,0.114-0.375,0.199-0.545,0.257c-0.171,0.057-0.329,0.085-0.475,0.085h-0.019c-0.146,0-0.304-0.028-0.475-0.085
	c-0.171-0.058-0.353-0.143-0.545-0.257c-0.193-0.113-0.357-0.216-0.493-0.308c-0.136-0.092-0.307-0.212-0.512-0.36
	c-0.206-0.149-0.34-0.245-0.403-0.29c-0.576-0.404-1.404-0.981-2.485-1.731c-1.082-0.749-1.73-1.199-1.945-1.352
	c-0.392-0.266-0.762-0.631-1.11-1.096c-0.348-0.465-0.522-0.896-0.522-1.295c0-0.493,0.131-0.904,0.394-1.233
	c0.263-0.328,0.637-0.493,1.125-0.493h13.964c0.411,0,0.767,0.148,1.067,0.446C904.35,893.022,904.5,893.38,904.5,893.797z"/>
</svg>
