<?xml version="1.0" encoding="utf-8"?>
<!-- Generator: Adobe Illustrator 15.1.0, SVG Export Plug-In . SVG Version: 6.00 Build 0)  -->
<!DOCTYPE svg PUBLIC "-//W3C//DTD SVG 1.1//EN" "http://www.w3.org/Graphics/SVG/1.1/DTD/svg11.dtd">
<svg version="1.1" id="Layer_1" xmlns="http://www.w3.org/2000/svg" xmlns:xlink="http://www.w3.org/1999/xlink" x="0px" y="0px"
	 width="25px" height="45.309px" viewBox="883.5 871 25 45.309" enable-background="new 883.5 871 25 45.309" xml:space="preserve">
<path d="M887.071,887.684v2.679c0,0.121-0.044,0.226-0.132,0.314c-0.088,0.088-0.193,0.132-0.314,0.132h-2.679
	c-0.121,0-0.226-0.044-0.314-0.132c-0.088-0.089-0.132-0.193-0.132-0.314v-2.679c0-0.12,0.044-0.226,0.132-0.313
	c0.088-0.089,0.193-0.133,0.314-0.133h2.679c0.121,0,0.226,0.044,0.314,0.133C887.027,887.458,887.071,887.564,887.071,887.684z
	 M887.071,882.328v2.678c0,0.121-0.044,0.226-0.132,0.314c-0.088,0.088-0.193,0.133-0.314,0.133h-2.679
	c-0.121,0-0.226-0.045-0.314-0.133c-0.088-0.089-0.132-0.193-0.132-0.314v-2.678c0-0.121,0.044-0.227,0.132-0.314
	s0.193-0.133,0.314-0.133h2.679c0.121,0,0.226,0.045,0.314,0.133S887.071,882.207,887.071,882.328z M887.071,876.97v2.679
	c0,0.121-0.044,0.226-0.132,0.314s-0.193,0.132-0.314,0.132h-2.679c-0.121,0-0.226-0.044-0.314-0.132s-0.132-0.193-0.132-0.314
	v-2.679c0-0.121,0.044-0.225,0.132-0.313s0.193-0.133,0.314-0.133h2.679c0.121,0,0.226,0.044,0.314,0.133
	S887.071,876.849,887.071,876.97z M908.5,887.684v2.679c0,0.121-0.044,0.226-0.133,0.314c-0.088,0.088-0.192,0.132-0.313,0.132
	h-18.75c-0.121,0-0.226-0.044-0.314-0.132c-0.088-0.089-0.133-0.193-0.133-0.314v-2.679c0-0.12,0.044-0.226,0.133-0.313
	c0.088-0.089,0.193-0.133,0.314-0.133h18.75c0.121,0,0.226,0.044,0.313,0.133C908.456,887.458,908.5,887.564,908.5,887.684z
	 M887.071,871.613v2.679c0,0.121-0.044,0.226-0.132,0.314s-0.193,0.132-0.314,0.132h-2.679c-0.121,0-0.226-0.044-0.314-0.132
	s-0.132-0.193-0.132-0.314v-2.679c0-0.121,0.044-0.226,0.132-0.314s0.193-0.132,0.314-0.132h2.679c0.121,0,0.226,0.044,0.314,0.132
	S887.071,871.492,887.071,871.613z M908.5,882.328v2.678c0,0.121-0.044,0.226-0.133,0.314c-0.088,0.088-0.192,0.133-0.313,0.133
	h-18.75c-0.121,0-0.226-0.045-0.314-0.133c-0.088-0.089-0.133-0.193-0.133-0.314v-2.678c0-0.121,0.044-0.227,0.133-0.314
	s0.193-0.133,0.314-0.133h18.75c0.121,0,0.226,0.045,0.313,0.133C908.456,882.101,908.5,882.207,908.5,882.328z M908.5,876.97v2.679
	c0,0.121-0.044,0.226-0.133,0.314c-0.088,0.088-0.192,0.132-0.313,0.132h-18.75c-0.121,0-0.226-0.044-0.314-0.132
	s-0.133-0.193-0.133-0.314v-2.679c0-0.121,0.044-0.225,0.133-0.313s0.193-0.133,0.314-0.133h18.75c0.121,0,0.226,0.044,0.313,0.133
	C908.456,876.745,908.5,876.849,908.5,876.97z M908.5,871.613v2.679c0,0.121-0.044,0.226-0.133,0.314
	c-0.088,0.088-0.192,0.132-0.313,0.132h-18.75c-0.121,0-0.226-0.044-0.314-0.132s-0.133-0.193-0.133-0.314v-2.679
	c0-0.121,0.044-0.226,0.133-0.314s0.193-0.132,0.314-0.132h18.75c0.121,0,0.226,0.044,0.313,0.132
	C908.456,871.387,908.5,871.492,908.5,871.613z"/>
<path fill="#7F7F7F" d="M887.071,913.184v2.68c0,0.121-0.044,0.225-0.132,0.314c-0.088,0.088-0.193,0.131-0.314,0.131h-2.679
	c-0.121,0-0.226-0.043-0.314-0.131c-0.088-0.09-0.132-0.193-0.132-0.314v-2.68c0-0.119,0.044-0.225,0.132-0.313
	c0.088-0.09,0.193-0.133,0.314-0.133h2.679c0.121,0,0.226,0.043,0.314,0.133C887.027,912.959,887.071,913.064,887.071,913.184z
	 M887.071,907.828v2.678c0,0.121-0.044,0.225-0.132,0.314c-0.088,0.088-0.193,0.133-0.314,0.133h-2.679
	c-0.121,0-0.226-0.045-0.314-0.133c-0.088-0.09-0.132-0.193-0.132-0.314v-2.678c0-0.121,0.044-0.227,0.132-0.314
	s0.193-0.133,0.314-0.133h2.679c0.121,0,0.226,0.045,0.314,0.133S887.071,907.707,887.071,907.828z M887.071,902.47v2.679
	c0,0.121-0.044,0.226-0.132,0.314c-0.088,0.088-0.193,0.132-0.314,0.132h-2.679c-0.121,0-0.226-0.044-0.314-0.132
	c-0.088-0.089-0.132-0.193-0.132-0.314v-2.679c0-0.12,0.044-0.226,0.132-0.313s0.193-0.133,0.314-0.133h2.679
	c0.121,0,0.226,0.045,0.314,0.133S887.071,902.35,887.071,902.47z M908.5,913.184v2.68c0,0.121-0.044,0.225-0.133,0.314
	c-0.088,0.088-0.192,0.131-0.313,0.131h-18.75c-0.121,0-0.226-0.043-0.314-0.131c-0.088-0.09-0.133-0.193-0.133-0.314v-2.68
	c0-0.119,0.044-0.225,0.133-0.313c0.088-0.09,0.193-0.133,0.314-0.133h18.75c0.121,0,0.226,0.043,0.313,0.133
	C908.456,912.959,908.5,913.064,908.5,913.184z M887.071,897.113v2.678c0,0.121-0.044,0.227-0.132,0.314s-0.193,0.133-0.314,0.133
	h-2.679c-0.121,0-0.226-0.045-0.314-0.133s-0.132-0.193-0.132-0.314v-2.678c0-0.121,0.044-0.227,0.132-0.314
	s0.193-0.133,0.314-0.133h2.679c0.121,0,0.226,0.045,0.314,0.133S887.071,896.992,887.071,897.113z M908.5,907.828v2.678
	c0,0.121-0.044,0.225-0.133,0.314c-0.088,0.088-0.192,0.133-0.313,0.133h-18.75c-0.121,0-0.226-0.045-0.314-0.133
	c-0.088-0.09-0.133-0.193-0.133-0.314v-2.678c0-0.121,0.044-0.227,0.133-0.314s0.193-0.133,0.314-0.133h18.75
	c0.121,0,0.226,0.045,0.313,0.133C908.456,907.602,908.5,907.707,908.5,907.828z M908.5,902.47v2.679
	c0,0.121-0.044,0.226-0.133,0.314c-0.088,0.088-0.192,0.132-0.313,0.132h-18.75c-0.121,0-0.226-0.044-0.314-0.132
	c-0.088-0.089-0.133-0.193-0.133-0.314v-2.679c0-0.12,0.044-0.226,0.133-0.313s0.193-0.133,0.314-0.133h18.75
	c0.121,0,0.226,0.045,0.313,0.133C908.456,902.244,908.5,902.35,908.5,902.47z M908.5,897.113v2.678
	c0,0.121-0.044,0.227-0.133,0.314c-0.088,0.088-0.192,0.133-0.313,0.133h-18.75c-0.121,0-0.226-0.045-0.314-0.133
	s-0.133-0.193-0.133-0.314v-2.678c0-0.121,0.044-0.227,0.133-0.314s0.193-0.133,0.314-0.133h18.75c0.121,0,0.226,0.045,0.313,0.133
	C908.456,896.887,908.5,896.992,908.5,897.113z"/>
</svg>
