<?xml version="1.0" encoding="utf-8"?>
<!-- Generator: Adobe Illustrator 15.1.0, SVG Export Plug-In . SVG Version: 6.00 Build 0)  -->
<!DOCTYPE svg PUBLIC "-//W3C//DTD SVG 1.1//EN" "http://www.w3.org/Graphics/SVG/1.1/DTD/svg11.dtd">
<svg version="1.1" id="Layer_1" xmlns="http://www.w3.org/2000/svg" xmlns:xlink="http://www.w3.org/1999/xlink" x="0px" y="0px"
	 width="20px" height="23.637px" viewBox="886 884.182 20 23.637" enable-background="new 886 884.182 20 23.637"
	 xml:space="preserve">
<path fill="#FFFFFF" d="M890.544,891.583v12.904h-4.297v-12.904H890.544z M890.818,887.599c0.008,0.634-0.21,1.164-0.658,1.589
	s-1.035,0.638-1.764,0.638h-0.026c-0.711,0-1.285-0.212-1.719-0.638S886,888.233,886,887.599c0-0.642,0.224-1.174,0.67-1.595
	c0.447-0.421,1.031-0.632,1.751-0.632s1.298,0.211,1.732,0.632S890.809,886.957,890.818,887.599z M906,897.091v7.396h-4.284v-6.901
	c0-0.911-0.176-1.625-0.527-2.142c-0.352-0.517-0.9-0.775-1.646-0.775c-0.547,0-1.005,0.15-1.374,0.449
	c-0.369,0.3-0.645,0.671-0.827,1.113c-0.095,0.26-0.143,0.612-0.143,1.054v7.201h-4.284c0.018-3.464,0.026-6.271,0.026-8.425
	c0-2.152-0.004-3.437-0.013-3.854l-0.013-0.625h4.284v1.875h-0.026c0.174-0.277,0.352-0.521,0.534-0.729
	c0.182-0.208,0.427-0.434,0.735-0.677c0.309-0.243,0.686-0.432,1.133-0.566c0.447-0.134,0.944-0.202,1.491-0.202
	c1.484,0,2.678,0.493,3.58,1.478C905.549,893.748,906,895.19,906,897.091z"/>
</svg>
