<?xml version="1.0" encoding="utf-8"?>
<!-- Generator: Adobe Illustrator 15.1.0, SVG Export Plug-In . SVG Version: 6.00 Build 0)  -->
<!DOCTYPE svg PUBLIC "-//W3C//DTD SVG 1.1//EN" "http://www.w3.org/Graphics/SVG/1.1/DTD/svg11.dtd">
<svg version="1.1" id="Layer_1" xmlns="http://www.w3.org/2000/svg" xmlns:xlink="http://www.w3.org/1999/xlink" x="0px" y="0px"
	 width="15px" height="17.727px" viewBox="888.5 887.136 15 17.727" enable-background="new 888.5 887.136 15 17.727"
	 xml:space="preserve">
<path fill="#999999" d="M903,899.92c0,0.18-0.033,0.412-0.1,0.701s-0.136,0.516-0.209,0.682c-0.139,0.331-0.543,0.682-1.213,1.053
	c-0.623,0.339-1.239,0.508-1.85,0.508c-0.179,0-0.353-0.012-0.521-0.035s-0.359-0.064-0.572-0.124
	c-0.212-0.06-0.369-0.107-0.472-0.144c-0.103-0.037-0.287-0.105-0.552-0.205c-0.266-0.099-0.428-0.158-0.487-0.178
	c-0.65-0.232-1.23-0.508-1.74-0.826c-0.849-0.523-1.725-1.238-2.63-2.143s-1.619-1.781-2.143-2.63
	c-0.318-0.511-0.593-1.091-0.825-1.739c-0.02-0.061-0.08-0.223-0.179-0.488c-0.1-0.265-0.167-0.449-0.204-0.552
	c-0.037-0.103-0.084-0.26-0.144-0.473c-0.06-0.212-0.101-0.402-0.125-0.572c-0.023-0.169-0.035-0.343-0.035-0.522
	c0-0.61,0.169-1.226,0.507-1.849c0.371-0.67,0.722-1.074,1.054-1.213c0.166-0.073,0.393-0.143,0.681-0.208
	c0.289-0.066,0.522-0.1,0.701-0.1c0.093,0,0.162,0.01,0.208,0.03c0.12,0.04,0.295,0.292,0.527,0.756
	c0.073,0.126,0.172,0.305,0.298,0.537c0.126,0.232,0.242,0.443,0.348,0.631c0.106,0.189,0.209,0.367,0.308,0.532
	c0.02,0.026,0.078,0.109,0.174,0.249s0.167,0.257,0.214,0.353s0.069,0.19,0.069,0.283c0,0.133-0.094,0.298-0.283,0.497
	c-0.189,0.199-0.395,0.381-0.617,0.547c-0.222,0.166-0.427,0.342-0.616,0.527s-0.284,0.338-0.284,0.457
	c0,0.06,0.017,0.134,0.05,0.224s0.062,0.157,0.084,0.203c0.023,0.047,0.07,0.127,0.139,0.239c0.07,0.112,0.108,0.176,0.115,0.188
	c0.503,0.908,1.08,1.688,1.73,2.337c0.649,0.649,1.428,1.227,2.337,1.729c0.013,0.008,0.076,0.045,0.188,0.115
	c0.112,0.069,0.192,0.115,0.238,0.139c0.047,0.023,0.115,0.052,0.204,0.085c0.09,0.033,0.164,0.05,0.224,0.05
	c0.119,0,0.272-0.095,0.458-0.283c0.186-0.189,0.361-0.395,0.526-0.617c0.166-0.222,0.349-0.428,0.547-0.616
	c0.199-0.188,0.365-0.283,0.497-0.283c0.093,0,0.188,0.022,0.284,0.069c0.096,0.047,0.213,0.117,0.353,0.214
	s0.222,0.154,0.249,0.175c0.165,0.099,0.343,0.201,0.531,0.308c0.189,0.106,0.399,0.222,0.632,0.349
	c0.231,0.125,0.411,0.225,0.537,0.297c0.464,0.232,0.716,0.408,0.755,0.527C902.99,899.758,903,899.827,903,899.92z"/>
</svg>
