<?xml version="1.0" encoding="utf-8"?>
<!-- Generator: Adobe Illustrator 15.1.0, SVG Export Plug-In . SVG Version: 6.00 Build 0)  -->
<!DOCTYPE svg PUBLIC "-//W3C//DTD SVG 1.1//EN" "http://www.w3.org/Graphics/SVG/1.1/DTD/svg11.dtd">
<svg version="1.1" id="Layer_1" xmlns="http://www.w3.org/2000/svg" xmlns:xlink="http://www.w3.org/1999/xlink" x="0px" y="0px"
	 width="30px" height="35.454px" viewBox="881 878.272 30 35.454" enable-background="new 881 878.272 30 35.454"
	 xml:space="preserve">
<path d="M900.808,894.804c0-1.854-0.658-3.438-1.976-4.755c-1.317-1.317-2.902-1.977-4.755-1.977c-1.853,0-3.438,0.659-4.755,1.977
	c-1.317,1.316-1.976,2.901-1.976,4.755c0,1.853,0.659,3.438,1.976,4.755c1.317,1.317,2.902,1.976,4.755,1.976
	c1.853,0,3.438-0.658,4.755-1.976S900.808,896.656,900.808,894.804z M908.5,907.304c0,0.521-0.19,0.972-0.571,1.352
	c-0.38,0.381-0.831,0.571-1.352,0.571c-0.541,0-0.992-0.19-1.353-0.571l-5.153-5.138c-1.793,1.242-3.791,1.863-5.994,1.863
	c-1.433,0-2.802-0.278-4.109-0.834c-1.307-0.557-2.434-1.308-3.38-2.254c-0.946-0.946-1.698-2.073-2.253-3.381
	c-0.556-1.307-0.834-2.677-0.834-4.108c0-1.433,0.278-2.802,0.834-4.109c0.556-1.307,1.307-2.434,2.253-3.38
	c0.947-0.947,2.073-1.698,3.38-2.254s2.677-0.834,4.109-0.834c1.432,0,2.802,0.278,4.108,0.834c1.308,0.556,2.435,1.307,3.381,2.254
	c0.946,0.946,1.697,2.073,2.254,3.38c0.556,1.308,0.834,2.677,0.834,4.109c0,2.203-0.621,4.201-1.863,5.994l5.153,5.153
	C908.314,906.322,908.5,906.772,908.5,907.304z"/>
</svg>
