<?xml version="1.0" encoding="utf-8"?>
<!-- Generator: Adobe Illustrator 15.1.0, SVG Export Plug-In . SVG Version: 6.00 Build 0)  -->
<!DOCTYPE svg PUBLIC "-//W3C//DTD SVG 1.1//EN" "http://www.w3.org/Graphics/SVG/1.1/DTD/svg11.dtd">
<svg version="1.1" id="Layer_1" xmlns="http://www.w3.org/2000/svg" xmlns:xlink="http://www.w3.org/1999/xlink" x="0px" y="0px"
	 width="15px" height="17.728px" viewBox="888.5 887.137 15 17.728" enable-background="new 888.5 887.137 15 17.728"
	 xml:space="preserve">
<path fill="#FFFFFF" d="M903.5,891.355c-0.425,0.622-0.939,1.152-1.542,1.589c0.007,0.089,0.01,0.222,0.01,0.4
	c0,0.825-0.12,1.648-0.361,2.47c-0.242,0.822-0.608,1.609-1.1,2.365c-0.491,0.755-1.077,1.423-1.756,2.003
	c-0.679,0.581-1.498,1.044-2.456,1.391c-0.958,0.346-1.983,0.519-3.074,0.519c-1.719,0-3.293-0.46-4.721-1.381
	c0.222,0.025,0.47,0.038,0.742,0.038c1.428,0,2.7-0.438,3.817-1.313c-0.667-0.013-1.263-0.217-1.79-0.613
	c-0.527-0.397-0.888-0.902-1.085-1.519c0.209,0.032,0.403,0.048,0.581,0.048c0.273,0,0.542-0.035,0.809-0.104
	c-0.71-0.146-1.299-0.5-1.766-1.062s-0.699-1.213-0.699-1.956v-0.038c0.431,0.241,0.895,0.371,1.389,0.39
	c-0.418-0.279-0.752-0.644-0.999-1.095c-0.248-0.45-0.371-0.939-0.371-1.466c0-0.559,0.139-1.076,0.418-1.551
	c0.768,0.945,1.702,1.702,2.803,2.27c1.101,0.568,2.279,0.883,3.536,0.947c-0.051-0.241-0.076-0.476-0.076-0.704
	c0-0.85,0.3-1.575,0.899-2.175s1.324-0.899,2.175-0.899c0.888,0,1.637,0.324,2.246,0.971c0.692-0.133,1.343-0.381,1.951-0.742
	c-0.234,0.73-0.686,1.294-1.351,1.694C902.32,891.768,902.91,891.609,903.5,891.355z"/>
</svg>
