<?xml version="1.0" encoding="utf-8"?>
<!-- Generator: Adobe Illustrator 15.1.0, SVG Export Plug-In . SVG Version: 6.00 Build 0)  -->
<!DOCTYPE svg PUBLIC "-//W3C//DTD SVG 1.1//EN" "http://www.w3.org/Graphics/SVG/1.1/DTD/svg11.dtd">
<svg version="1.1" id="Layer_1" xmlns="http://www.w3.org/2000/svg" xmlns:xlink="http://www.w3.org/1999/xlink" x="0px" y="0px"
	 width="20px" height="23.637px" viewBox="886 884.182 20 23.637" enable-background="new 886 884.182 20 23.637"
	 xml:space="preserve">
<path d="M906,903.23c0,1.136-0.346,2.033-1.037,2.691s-1.609,0.987-2.756,0.987h-12.415c-1.146,0-2.064-0.329-2.755-0.987
	c-0.691-0.658-1.037-1.556-1.037-2.691c0-0.502,0.017-0.992,0.05-1.471s0.099-0.994,0.199-1.548c0.1-0.555,0.225-1.068,0.376-1.541
	c0.151-0.474,0.355-0.936,0.611-1.386c0.256-0.449,0.549-0.833,0.881-1.15c0.331-0.317,0.736-0.57,1.214-0.76
	c0.478-0.189,1.006-0.284,1.583-0.284c0.085,0,0.284,0.102,0.597,0.306s0.666,0.431,1.059,0.682
	c0.393,0.251,0.904,0.479,1.534,0.682c0.63,0.204,1.262,0.306,1.896,0.306c0.635,0,1.267-0.102,1.896-0.306
	c0.63-0.203,1.141-0.431,1.534-0.682c0.393-0.251,0.745-0.478,1.058-0.682s0.512-0.306,0.597-0.306c0.578,0,1.105,0.095,1.584,0.284
	s0.883,0.443,1.215,0.76c0.331,0.317,0.625,0.701,0.881,1.15c0.255,0.45,0.459,0.912,0.61,1.386
	c0.151,0.473,0.277,0.986,0.376,1.541c0.1,0.554,0.166,1.069,0.199,1.548S906,902.729,906,903.23z M901.454,890.545
	c0,1.506-0.532,2.791-1.598,3.856S897.506,896,896,896s-2.791-0.533-3.856-1.598s-1.598-2.351-1.598-3.856s0.533-2.791,1.598-3.856
	s2.351-1.598,3.856-1.598s2.791,0.533,3.856,1.598S901.454,889.04,901.454,890.545z"/>
</svg>
