<?xml version="1.0" encoding="utf-8"?>
<!-- Generator: Adobe Illustrator 15.1.0, SVG Export Plug-In . SVG Version: 6.00 Build 0)  -->
<!DOCTYPE svg PUBLIC "-//W3C//DTD SVG 1.1//EN" "http://www.w3.org/Graphics/SVG/1.1/DTD/svg11.dtd">
<svg version="1.1" id="Layer_1" xmlns="http://www.w3.org/2000/svg" xmlns:xlink="http://www.w3.org/1999/xlink" x="0px" y="0px"
	 width="15px" height="17.727px" viewBox="888.5 887.136 15 17.727" enable-background="new 888.5 887.136 15 17.727"
	 xml:space="preserve">
<path fill="#FFFFFF" d="M899.214,896c0-0.207-0.083-0.357-0.251-0.452l-4.286-2.678c-0.173-0.112-0.354-0.117-0.544-0.017
	c-0.184,0.101-0.276,0.257-0.276,0.469v5.357c0,0.212,0.092,0.368,0.276,0.469c0.089,0.045,0.176,0.066,0.26,0.066
	c0.111,0,0.206-0.027,0.284-0.083l4.286-2.679C899.131,896.357,899.214,896.207,899.214,896z M903.5,896
	c0,0.536-0.003,0.954-0.009,1.256c-0.005,0.301-0.029,0.682-0.07,1.143c-0.042,0.46-0.105,0.872-0.188,1.234
	c-0.09,0.407-0.282,0.751-0.578,1.029c-0.296,0.279-0.642,0.441-1.038,0.485c-1.238,0.14-3.11,0.21-5.616,0.21
	c-2.505,0-4.378-0.07-5.617-0.21c-0.396-0.044-0.744-0.206-1.042-0.485c-0.299-0.278-0.493-0.622-0.582-1.029
	c-0.078-0.362-0.138-0.774-0.18-1.234c-0.042-0.461-0.065-0.842-0.071-1.143c-0.005-0.302-0.008-0.72-0.008-1.256
	c0-0.536,0.003-0.954,0.008-1.255c0.006-0.302,0.029-0.683,0.071-1.143c0.042-0.46,0.104-0.872,0.188-1.235
	c0.089-0.407,0.282-0.75,0.577-1.03c0.296-0.279,0.642-0.44,1.038-0.485c1.239-0.14,3.111-0.209,5.617-0.209
	c2.506,0,4.378,0.069,5.616,0.209c0.396,0.045,0.744,0.207,1.043,0.485c0.298,0.279,0.492,0.623,0.581,1.03
	c0.078,0.363,0.139,0.774,0.181,1.235c0.041,0.46,0.065,0.841,0.07,1.143C903.497,895.046,903.5,895.464,903.5,896z"/>
</svg>
