<?xml version="1.0" encoding="utf-8"?>
<!-- Generator: Adobe Illustrator 15.1.0, SVG Export Plug-In . SVG Version: 6.00 Build 0)  -->
<!DOCTYPE svg PUBLIC "-//W3C//DTD SVG 1.1//EN" "http://www.w3.org/Graphics/SVG/1.1/DTD/svg11.dtd">
<svg version="1.1" id="Layer_1" xmlns="http://www.w3.org/2000/svg" xmlns:xlink="http://www.w3.org/1999/xlink" x="0px" y="0px"
	 width="27px" height="25.49px" viewBox="880.75 930.466 27 25.49" enable-background="new 880.75 930.466 27 25.49"
	 xml:space="preserve">
<path fill="#999999" d="M897.135,941.016v0.963c0,0.13-0.048,0.244-0.143,0.338c-0.096,0.096-0.208,0.143-0.338,0.143h-3.366v3.367
	c0,0.129-0.048,0.241-0.143,0.336c-0.095,0.096-0.208,0.144-0.338,0.144h-0.961c-0.131,0-0.244-0.048-0.338-0.144
	c-0.095-0.095-0.143-0.207-0.143-0.336v-3.367H888c-0.131,0-0.243-0.047-0.338-0.143c-0.096-0.094-0.143-0.208-0.143-0.338v-0.963
	c0-0.129,0.047-0.241,0.143-0.336c0.095-0.096,0.207-0.144,0.338-0.144h3.365v-3.365c0-0.13,0.048-0.243,0.143-0.338
	c0.095-0.096,0.208-0.144,0.338-0.144h0.961c0.13,0,0.243,0.048,0.338,0.144c0.095,0.095,0.143,0.208,0.143,0.338v3.365h3.366
	c0.13,0,0.242,0.048,0.338,0.144C897.087,940.774,897.135,940.887,897.135,941.016z M899.057,941.498
	c0-1.854-0.657-3.438-1.975-4.754c-1.317-1.318-2.902-1.979-4.755-1.979s-3.438,0.66-4.756,1.979
	c-1.316,1.315-1.975,2.9-1.975,4.754c0,1.852,0.658,3.438,1.975,4.755c1.318,1.317,2.903,1.976,4.756,1.976s3.438-0.658,4.755-1.976
	S899.057,943.35,899.057,941.498z M906.75,953.998c0,0.53-0.188,0.982-0.564,1.359c-0.375,0.375-0.828,0.563-1.358,0.563
	c-0.54,0-0.992-0.19-1.353-0.571l-5.153-5.138c-1.793,1.242-3.791,1.864-5.994,1.864c-1.433,0-2.803-0.279-4.109-0.836
	c-1.307-0.557-2.434-1.307-3.381-2.253c-0.946-0.946-1.697-2.073-2.253-3.382c-0.556-1.306-0.834-2.676-0.834-4.107
	c0-1.433,0.278-2.801,0.834-4.109c0.556-1.307,1.307-2.434,2.253-3.379c0.947-0.947,2.074-1.699,3.381-2.255
	c1.307-0.556,2.677-0.834,4.109-0.834c1.432,0,2.802,0.278,4.108,0.834c1.309,0.556,2.435,1.308,3.381,2.255
	c0.946,0.945,1.697,2.072,2.254,3.379c0.557,1.309,0.834,2.677,0.834,4.109c0,2.203-0.621,4.201-1.863,5.994l5.153,5.153
	C906.564,953.017,906.75,953.467,906.75,953.998z"/>
</svg>
