<?xml version="1.0" encoding="utf-8"?>
<!-- Generator: Adobe Illustrator 15.1.0, SVG Export Plug-In . SVG Version: 6.00 Build 0)  -->
<!DOCTYPE svg PUBLIC "-//W3C//DTD SVG 1.1//EN" "http://www.w3.org/Graphics/SVG/1.1/DTD/svg11.dtd">
<svg version="1.1" id="Layer_1" xmlns="http://www.w3.org/2000/svg" xmlns:xlink="http://www.w3.org/1999/xlink" x="0px" y="0px"
	 width="24px" height="50px" viewBox="884 808.813 24 50" enable-background="new 884 808.813 24 50" xml:space="preserve">
<path d="M890.857,823.926v2.591c0,0.359-0.125,0.666-0.375,0.917s-0.553,0.378-0.911,0.378h-4.286c-0.357,0-0.661-0.126-0.911-0.378
	S884,826.877,884,826.518v-2.591c0-0.359,0.125-0.665,0.375-0.918c0.25-0.252,0.554-0.377,0.911-0.377h4.286
	c0.357,0,0.661,0.125,0.911,0.377C890.732,823.261,890.857,823.567,890.857,823.926z M890.857,817.018v2.59
	c0,0.361-0.125,0.666-0.375,0.917c-0.25,0.252-0.553,0.378-0.911,0.378h-4.286c-0.357,0-0.661-0.126-0.911-0.378
	c-0.25-0.251-0.375-0.557-0.375-0.917v-2.59c0-0.36,0.125-0.666,0.375-0.917c0.25-0.252,0.554-0.378,0.911-0.378h4.286
	c0.357,0,0.661,0.126,0.911,0.378C890.732,816.352,890.857,816.657,890.857,817.018z M899.429,823.926v2.591
	c0,0.359-0.125,0.666-0.375,0.917s-0.554,0.378-0.911,0.378h-4.286c-0.357,0-0.661-0.126-0.911-0.378s-0.375-0.558-0.375-0.917
	v-2.591c0-0.359,0.125-0.665,0.375-0.918c0.25-0.252,0.554-0.377,0.911-0.377h4.286c0.357,0,0.661,0.125,0.911,0.377
	C899.304,823.261,899.429,823.567,899.429,823.926z M890.857,810.108v2.591c0,0.359-0.125,0.665-0.375,0.918
	c-0.25,0.252-0.553,0.377-0.911,0.377h-4.286c-0.357,0-0.661-0.125-0.911-0.377c-0.25-0.253-0.375-0.559-0.375-0.918v-2.591
	c0-0.359,0.125-0.666,0.375-0.917s0.554-0.377,0.911-0.377h4.286c0.357,0,0.661,0.125,0.911,0.377S890.857,809.749,890.857,810.108z
	 M899.429,817.018v2.59c0,0.361-0.125,0.666-0.375,0.917c-0.25,0.252-0.554,0.378-0.911,0.378h-4.286
	c-0.357,0-0.661-0.126-0.911-0.378c-0.25-0.251-0.375-0.557-0.375-0.917v-2.59c0-0.36,0.125-0.666,0.375-0.917
	c0.25-0.252,0.554-0.378,0.911-0.378h4.286c0.357,0,0.661,0.126,0.911,0.378C899.304,816.352,899.429,816.657,899.429,817.018z
	 M908,823.926v2.591c0,0.359-0.125,0.666-0.375,0.917s-0.554,0.378-0.911,0.378h-4.285c-0.357,0-0.661-0.126-0.911-0.378
	s-0.375-0.558-0.375-0.917v-2.591c0-0.359,0.125-0.665,0.375-0.918c0.25-0.252,0.554-0.377,0.911-0.377h4.285
	c0.357,0,0.661,0.125,0.911,0.377C907.875,823.261,908,823.567,908,823.926z M899.429,810.108v2.591
	c0,0.359-0.125,0.665-0.375,0.918c-0.25,0.252-0.554,0.377-0.911,0.377h-4.286c-0.357,0-0.661-0.125-0.911-0.377
	c-0.25-0.253-0.375-0.559-0.375-0.918v-2.591c0-0.359,0.125-0.666,0.375-0.917s0.554-0.377,0.911-0.377h4.286
	c0.357,0,0.661,0.125,0.911,0.377S899.429,809.749,899.429,810.108z M908,817.018v2.59c0,0.361-0.125,0.666-0.375,0.917
	c-0.25,0.252-0.554,0.378-0.911,0.378h-4.285c-0.357,0-0.661-0.126-0.911-0.378c-0.25-0.251-0.375-0.557-0.375-0.917v-2.59
	c0-0.36,0.125-0.666,0.375-0.917c0.25-0.252,0.554-0.378,0.911-0.378h4.285c0.357,0,0.661,0.126,0.911,0.378
	C907.875,816.352,908,816.657,908,817.018z M908,810.108v2.591c0,0.359-0.125,0.665-0.375,0.918
	c-0.25,0.252-0.554,0.377-0.911,0.377h-4.285c-0.357,0-0.661-0.125-0.911-0.377c-0.25-0.253-0.375-0.559-0.375-0.918v-2.591
	c0-0.359,0.125-0.666,0.375-0.917s0.554-0.377,0.911-0.377h4.285c0.357,0,0.661,0.125,0.911,0.377S908,809.749,908,810.108z"/>
<path fill="#7F7F7F" d="M890.857,854.926v2.591c0,0.359-0.125,0.666-0.375,0.917s-0.553,0.378-0.911,0.378h-4.286
	c-0.357,0-0.661-0.126-0.911-0.378S884,857.877,884,857.518v-2.591c0-0.359,0.125-0.665,0.375-0.918
	c0.25-0.252,0.554-0.377,0.911-0.377h4.286c0.357,0,0.661,0.125,0.911,0.377C890.732,854.261,890.857,854.567,890.857,854.926z
	 M890.857,848.018v2.59c0,0.361-0.125,0.666-0.375,0.917c-0.25,0.252-0.553,0.378-0.911,0.378h-4.286
	c-0.357,0-0.661-0.126-0.911-0.378c-0.25-0.251-0.375-0.557-0.375-0.917v-2.59c0-0.36,0.125-0.666,0.375-0.917
	c0.25-0.252,0.554-0.378,0.911-0.378h4.286c0.357,0,0.661,0.126,0.911,0.378C890.732,847.352,890.857,847.657,890.857,848.018z
	 M899.429,854.926v2.591c0,0.359-0.125,0.666-0.375,0.917s-0.554,0.378-0.911,0.378h-4.286c-0.357,0-0.661-0.126-0.911-0.378
	s-0.375-0.558-0.375-0.917v-2.591c0-0.359,0.125-0.665,0.375-0.918c0.25-0.252,0.554-0.377,0.911-0.377h4.286
	c0.357,0,0.661,0.125,0.911,0.377C899.304,854.261,899.429,854.567,899.429,854.926z M890.857,841.108v2.591
	c0,0.359-0.125,0.665-0.375,0.918c-0.25,0.252-0.553,0.377-0.911,0.377h-4.286c-0.357,0-0.661-0.125-0.911-0.377
	c-0.25-0.253-0.375-0.559-0.375-0.918v-2.591c0-0.359,0.125-0.666,0.375-0.917s0.554-0.377,0.911-0.377h4.286
	c0.357,0,0.661,0.125,0.911,0.377S890.857,840.749,890.857,841.108z M899.429,848.018v2.59c0,0.361-0.125,0.666-0.375,0.917
	c-0.25,0.252-0.554,0.378-0.911,0.378h-4.286c-0.357,0-0.661-0.126-0.911-0.378c-0.25-0.251-0.375-0.557-0.375-0.917v-2.59
	c0-0.36,0.125-0.666,0.375-0.917c0.25-0.252,0.554-0.378,0.911-0.378h4.286c0.357,0,0.661,0.126,0.911,0.378
	C899.304,847.352,899.429,847.657,899.429,848.018z M908,854.926v2.591c0,0.359-0.125,0.666-0.375,0.917s-0.554,0.378-0.911,0.378
	h-4.285c-0.357,0-0.661-0.126-0.911-0.378s-0.375-0.558-0.375-0.917v-2.591c0-0.359,0.125-0.665,0.375-0.918
	c0.25-0.252,0.554-0.377,0.911-0.377h4.285c0.357,0,0.661,0.125,0.911,0.377C907.875,854.261,908,854.567,908,854.926z
	 M899.429,841.108v2.591c0,0.359-0.125,0.665-0.375,0.918c-0.25,0.252-0.554,0.377-0.911,0.377h-4.286
	c-0.357,0-0.661-0.125-0.911-0.377c-0.25-0.253-0.375-0.559-0.375-0.918v-2.591c0-0.359,0.125-0.666,0.375-0.917
	s0.554-0.377,0.911-0.377h4.286c0.357,0,0.661,0.125,0.911,0.377S899.429,840.749,899.429,841.108z M908,848.018v2.59
	c0,0.361-0.125,0.666-0.375,0.917c-0.25,0.252-0.554,0.378-0.911,0.378h-4.285c-0.357,0-0.661-0.126-0.911-0.378
	c-0.25-0.251-0.375-0.557-0.375-0.917v-2.59c0-0.36,0.125-0.666,0.375-0.917c0.25-0.252,0.554-0.378,0.911-0.378h4.285
	c0.357,0,0.661,0.126,0.911,0.378C907.875,847.352,908,847.657,908,848.018z M908,841.108v2.591c0,0.359-0.125,0.665-0.375,0.918
	c-0.25,0.252-0.554,0.377-0.911,0.377h-4.285c-0.357,0-0.661-0.125-0.911-0.377c-0.25-0.253-0.375-0.559-0.375-0.918v-2.591
	c0-0.359,0.125-0.666,0.375-0.917s0.554-0.377,0.911-0.377h4.285c0.357,0,0.661,0.125,0.911,0.377S908,840.749,908,841.108z"/>
</svg>
