<?xml version="1.0" encoding="utf-8"?>
<!-- Generator: Adobe Illustrator 15.1.0, SVG Export Plug-In . SVG Version: 6.00 Build 0)  -->
<!DOCTYPE svg PUBLIC "-//W3C//DTD SVG 1.1//EN" "http://www.w3.org/Graphics/SVG/1.1/DTD/svg11.dtd">
<svg version="1.1" id="Layer_1" xmlns="http://www.w3.org/2000/svg" xmlns:xlink="http://www.w3.org/1999/xlink" x="0px" y="0px"
	 width="90px" height="48.014px" viewBox="0 0 90 48.014" enable-background="new 0 0 90 48.014" xml:space="preserve">
<g>
	<path fill-rule="evenodd" clip-rule="evenodd" fill="#7CC244" d="M36.628,3.956c-3.613,1.34-6.809,2.917-9.584,4.731
		c-2.778,1.816-4.876,3.772-6.287,5.863c-2.162,3.502-1.965,6.357,0.595,8.571c2.553,2.208,6.877,3.347,12.97,3.421
		c0.76,0,1.54-0.024,2.34-0.069c4.353-0.254,8.564-0.992,12.638-2.219c-5.423,2.085-11.102,3.314-17.036,3.683
		c-0.829,0.039-1.636,0.062-2.418,0.062c-6.128-0.07-10.471-1.205-13.028-3.412c-2.565-2.213-2.762-5.065-0.587-8.555
		c1.724-2.524,4.412-4.841,8.067-6.952C27.938,6.964,32.05,5.257,36.628,3.956 M68.285,1.395c-1.892-0.356-3.971-0.536-6.248-0.536
		c-4.628-0.022-9.617,0.727-14.962,2.248c-7.112,2.173-12.604,4.972-16.472,8.398c-3.869,3.421-5.204,6.67-4.001,9.745
		c0.919,1.894,2.727,3.3,5.421,4.222c-4.482-0.794-7.377-2.47-8.688-5.021c-1.197-3.121,0.144-6.396,4.025-9.82
		c3.88-3.421,9.372-6.211,16.477-8.368C49.209,0.742,54.214-0.012,58.855,0C62.572,0.012,65.715,0.478,68.285,1.395 M56.66,9.123
		c4.48,0.794,7.38,2.469,8.691,5.021c1.193,3.13-0.146,6.404-4.025,9.82c-3.885,3.421-9.376,6.207-16.478,8.364
		c-5.373,1.533-10.377,2.289-15.013,2.263c-3.722,0-6.868-0.458-9.437-1.375c1.888,0.35,3.973,0.523,6.254,0.523
		c4.625,0.02,9.607-0.729,14.952-2.245c7.113-2.178,12.605-4.98,16.478-8.4c3.867-3.425,5.202-6.676,3.996-9.751
		C61.162,11.46,59.357,10.053,56.66,9.123 M56.422,6.671c0.827-0.046,1.633-0.068,2.419-0.068
		c6.127,0.064,10.467,1.204,13.028,3.421c2.551,2.202,2.747,5.05,0.586,8.545c-1.725,2.524-4.415,4.841-8.068,6.945
		c-3.641,2.123-7.75,3.828-12.331,5.124c3.614-1.335,6.809-2.911,9.584-4.732c2.781-1.806,4.876-3.753,6.29-5.849
		c2.162-3.498,1.961-6.354-0.6-8.568c-2.551-2.213-6.874-3.359-12.968-3.438c-0.761,0-1.54,0.025-2.34,0.075
		c-4.351,0.262-8.563,1-12.638,2.214C44.815,8.252,50.495,7.028,56.422,6.671"/>
	<path fill-rule="evenodd" clip-rule="evenodd" fill="#7CC244" d="M42.041,43.563c0.232,0.123,0.41,0.269,0.534,0.436
		c0.132,0.174,0.196,0.365,0.196,0.568v2.052c0,0.199-0.064,0.387-0.196,0.563c-0.124,0.168-0.302,0.315-0.534,0.439
		c-0.239,0.128-0.517,0.225-0.835,0.29c-0.329,0.07-0.685,0.103-1.063,0.103h-9.746l1.294-1.965h6.561v-1.193h-4.569
		c-0.381,0-0.734-0.033-1.063-0.101c-0.319-0.068-0.597-0.165-0.835-0.288c-0.232-0.128-0.41-0.274-0.536-0.444
		c-0.136-0.169-0.203-0.354-0.203-0.553v-2.059c0-0.207,0.067-0.394,0.203-0.562c0.126-0.173,0.304-0.316,0.536-0.445
		c0.238-0.122,0.516-0.22,0.835-0.29c0.328-0.065,0.682-0.099,1.063-0.099h9.303l-1.286,1.966h-6.126v1.188h4.57
		c0.378,0,0.733,0.037,1.063,0.103C41.524,43.338,41.802,43.434,42.041,43.563 M16.748,39.785h4.103v1.565h-4.103V39.785z
		 M22.636,48.014v-4.596c0-0.187,0.071-0.367,0.213-0.542c0.136-0.167,0.326-0.315,0.571-0.445c0.249-0.13,0.532-0.232,0.852-0.304
		c0.323-0.077,0.662-0.112,1.02-0.112h5.106l-1.294,1.736h-2.366v4.263H22.636z M11.744,40.016l4.102,7.998H7.055v-1.735h2.943
		l-1.727-3.959H7.42l-2.698,5.694H0l4.118-7.998H11.744z M16.748,42.015h4.103v5.999h-4.103V42.015z M85.943,43.751h-1.147v2.527
		h2.509l-1.302,1.735h-2.645c-0.354,0-0.696-0.035-1.024-0.112c-0.317-0.071-0.598-0.175-0.843-0.304
		c-0.246-0.129-0.439-0.281-0.575-0.451c-0.143-0.171-0.216-0.35-0.216-0.537v-2.858h-1.273l1.273-1.736v-0.969h4.096v0.969h2.442
		L85.943,43.751z M61.757,43.521h-2.715v2.985h2.715V43.521z M53.834,42.015l-1.292,1.736h-4.01v2.527h5.414l-1.301,1.735h-5.56
		c-0.356,0-0.701-0.035-1.03-0.112c-0.316-0.071-0.597-0.175-0.842-0.304s-0.436-0.281-0.571-0.451
		c-0.136-0.171-0.202-0.35-0.202-0.537v-3.191c0-0.187,0.066-0.367,0.202-0.542c0.136-0.167,0.326-0.315,0.571-0.445
		s0.525-0.232,0.842-0.304c0.329-0.077,0.674-0.112,1.03-0.112H53.834z M56.566,42.127c0.329-0.077,0.675-0.112,1.03-0.112h5.602
		c0.355,0,0.696,0.035,1.02,0.112c0.316,0.071,0.601,0.174,0.853,0.304c0.246,0.13,0.437,0.278,0.57,0.445
		c0.142,0.175,0.21,0.355,0.21,0.542v3.191c0,0.188-0.068,0.366-0.21,0.537c-0.134,0.17-0.324,0.322-0.57,0.451
		c-0.252,0.129-0.536,0.232-0.853,0.304c-0.323,0.077-0.664,0.112-1.02,0.112h-5.602c-0.355,0-0.701-0.035-1.03-0.112
		c-0.316-0.071-0.597-0.175-0.842-0.304s-0.436-0.281-0.571-0.451c-0.136-0.171-0.202-0.35-0.202-0.537v-3.191
		c0-0.187,0.066-0.367,0.202-0.542c0.136-0.167,0.326-0.315,0.571-0.445S56.25,42.198,56.566,42.127 M67.476,46.609v-4.595h4.104
		v4.264h2.714v-4.264h4.096v5.999h-8.255c-0.36,0-0.697-0.035-1.022-0.112c-0.319-0.071-0.604-0.175-0.85-0.304
		c-0.245-0.129-0.436-0.281-0.57-0.451C67.548,46.976,67.476,46.797,67.476,46.609"/>
	<polygon fill="#7CC244" points="88.288,46.459 88.288,47.619 88.148,47.619 88.148,46.459 87.765,46.459 87.765,46.34 
		88.671,46.34 88.671,46.459 	"/>
	<polygon fill="#7CC244" points="89.874,47.619 89.874,46.447 89.867,46.447 89.508,47.619 89.398,47.619 89.038,46.447 
		89.034,46.447 89.034,47.619 88.902,47.619 88.902,46.34 89.126,46.34 89.452,47.378 89.456,47.378 89.777,46.34 90,46.34 
		90,47.619 	"/>
</g>
</svg>
